<mxfile host="app.diagrams.net" modified="2023-03-26T19:00:59.152Z" agent="Mozilla/5.0 (Windows NT 10.0; Win64; x64) AppleWebKit/537.36 (KHTML, like Gecko) Chrome/111.0.0.0 Safari/537.36" etag="4pV9nfRSZZ8-n7r5ttgo" version="21.1.1" type="device">
  <diagram name="Page-1" id="JCEGxdFOgvOAtDUVBZYm">
    <mxGraphModel dx="291" dy="325" grid="1" gridSize="10" guides="1" tooltips="1" connect="1" arrows="1" fold="1" page="1" pageScale="1" pageWidth="850" pageHeight="1100" math="0" shadow="0">
      <root>
        <mxCell id="0" />
        <mxCell id="1" parent="0" />
        <mxCell id="HDsGMQWWcjxy8k_yasPS-3" value="Start&lt;br&gt;&lt;b&gt;/api/asset/{address-book-id}&lt;/b&gt;" style="strokeWidth=2;html=1;shape=mxgraph.flowchart.start_2;whiteSpace=wrap;fontSize=16;" parent="1" vertex="1">
          <mxGeometry x="306.25" y="160" width="260" height="90" as="geometry" />
        </mxCell>
        <mxCell id="HDsGMQWWcjxy8k_yasPS-5" value="&lt;b&gt;Download File API&lt;/b&gt;" style="text;html=1;strokeColor=none;fillColor=none;align=center;verticalAlign=middle;whiteSpace=wrap;rounded=0;fontSize=16;" parent="1" vertex="1">
          <mxGeometry x="325" y="60" width="180" height="30" as="geometry" />
        </mxCell>
        <mxCell id="5U4W94Xlayc8lvqxWWvb-1" value="&lt;b&gt;is&lt;br&gt;authorized?&lt;/b&gt;" style="rhombus;whiteSpace=wrap;html=1;" parent="1" vertex="1">
          <mxGeometry x="377.5" y="320" width="117.5" height="90" as="geometry" />
        </mxCell>
        <mxCell id="5U4W94Xlayc8lvqxWWvb-3" value="&lt;b&gt;User input&lt;br&gt;&lt;/b&gt;Get the UUID of &lt;br&gt;the file to downloade&lt;br&gt;id: UUID" style="shape=parallelogram;html=1;strokeWidth=2;perimeter=parallelogramPerimeter;whiteSpace=wrap;rounded=1;arcSize=12;size=0.23;" parent="1" vertex="1">
          <mxGeometry x="348.25" y="476" width="177.5" height="70" as="geometry" />
        </mxCell>
        <mxCell id="5U4W94Xlayc8lvqxWWvb-4" value="&lt;b&gt;Response code: 401&lt;/b&gt;&lt;br&gt;Unauthorized user" style="rounded=1;whiteSpace=wrap;html=1;absoluteArcSize=1;arcSize=14;strokeWidth=2;" parent="1" vertex="1">
          <mxGeometry x="686" y="330" width="124" height="70" as="geometry" />
        </mxCell>
        <mxCell id="5U4W94Xlayc8lvqxWWvb-5" value="&lt;b&gt;Validate&lt;/b&gt;&amp;nbsp;&lt;br&gt;is the ID of the Asset?" style="strokeWidth=2;html=1;shape=mxgraph.flowchart.decision;whiteSpace=wrap;" parent="1" vertex="1">
          <mxGeometry x="382" y="619" width="110" height="100" as="geometry" />
        </mxCell>
        <mxCell id="5U4W94Xlayc8lvqxWWvb-6" value="&lt;b&gt;Response code: 404&lt;/b&gt;&lt;br&gt;Asset ID Not found" style="rounded=1;whiteSpace=wrap;html=1;absoluteArcSize=1;arcSize=14;strokeWidth=2;" parent="1" vertex="1">
          <mxGeometry x="557" y="634" width="133" height="70" as="geometry" />
        </mxCell>
        <mxCell id="5U4W94Xlayc8lvqxWWvb-7" value="&lt;b&gt;Query&lt;/b&gt;&lt;br&gt;Retrieve the details of the file by the asset id" style="rounded=1;whiteSpace=wrap;html=1;absoluteArcSize=1;arcSize=14;strokeWidth=2;" parent="1" vertex="1">
          <mxGeometry x="85" y="640" width="170" height="60" as="geometry" />
        </mxCell>
        <mxCell id="5U4W94Xlayc8lvqxWWvb-8" value="&lt;span&gt;Response code: 200&lt;br&gt;&lt;span style=&quot;font-weight: 400;&quot;&gt;Downloade the file&lt;br&gt;&lt;/span&gt;&lt;span style=&quot;font-weight: normal;&quot;&gt;id: UUID&lt;br&gt;file_name: string&lt;br&gt;file_type: string&lt;br&gt;file_content: string&lt;/span&gt;&lt;br&gt;&lt;/span&gt;" style="rounded=1;whiteSpace=wrap;html=1;absoluteArcSize=1;arcSize=14;strokeWidth=2;fontStyle=1" parent="1" vertex="1">
          <mxGeometry x="70" y="735" width="200" height="100" as="geometry" />
        </mxCell>
        <mxCell id="5U4W94Xlayc8lvqxWWvb-9" value="JSON" style="text;html=1;strokeColor=none;fillColor=none;align=center;verticalAlign=middle;whiteSpace=wrap;rounded=0;" parent="1" vertex="1">
          <mxGeometry x="60" y="710" width="60" height="30" as="geometry" />
        </mxCell>
        <mxCell id="5U4W94Xlayc8lvqxWWvb-10" value="" style="endArrow=classic;html=1;rounded=0;exitX=0.5;exitY=1;exitDx=0;exitDy=0;exitPerimeter=0;entryX=0.5;entryY=0;entryDx=0;entryDy=0;" parent="1" source="HDsGMQWWcjxy8k_yasPS-3" target="5U4W94Xlayc8lvqxWWvb-1" edge="1">
          <mxGeometry width="50" height="50" relative="1" as="geometry">
            <mxPoint x="370" y="510" as="sourcePoint" />
            <mxPoint x="420" y="460" as="targetPoint" />
          </mxGeometry>
        </mxCell>
        <mxCell id="5U4W94Xlayc8lvqxWWvb-11" value="" style="endArrow=classic;html=1;rounded=0;exitX=0.5;exitY=1;exitDx=0;exitDy=0;entryX=0.5;entryY=0;entryDx=0;entryDy=0;" parent="1" source="5U4W94Xlayc8lvqxWWvb-1" target="5U4W94Xlayc8lvqxWWvb-3" edge="1">
          <mxGeometry width="50" height="50" relative="1" as="geometry">
            <mxPoint x="370" y="510" as="sourcePoint" />
            <mxPoint x="420" y="460" as="targetPoint" />
          </mxGeometry>
        </mxCell>
        <mxCell id="5U4W94Xlayc8lvqxWWvb-12" value="" style="endArrow=classic;html=1;rounded=0;exitX=0.5;exitY=1;exitDx=0;exitDy=0;entryX=0.5;entryY=0;entryDx=0;entryDy=0;entryPerimeter=0;" parent="1" source="5U4W94Xlayc8lvqxWWvb-3" target="5U4W94Xlayc8lvqxWWvb-5" edge="1">
          <mxGeometry width="50" height="50" relative="1" as="geometry">
            <mxPoint x="370" y="510" as="sourcePoint" />
            <mxPoint x="420" y="460" as="targetPoint" />
          </mxGeometry>
        </mxCell>
        <mxCell id="5U4W94Xlayc8lvqxWWvb-13" value="" style="endArrow=classic;html=1;rounded=0;exitX=0;exitY=0.5;exitDx=0;exitDy=0;exitPerimeter=0;entryX=1;entryY=0.5;entryDx=0;entryDy=0;" parent="1" source="5U4W94Xlayc8lvqxWWvb-5" target="5U4W94Xlayc8lvqxWWvb-7" edge="1">
          <mxGeometry width="50" height="50" relative="1" as="geometry">
            <mxPoint x="370" y="510" as="sourcePoint" />
            <mxPoint x="420" y="460" as="targetPoint" />
          </mxGeometry>
        </mxCell>
        <mxCell id="5U4W94Xlayc8lvqxWWvb-18" value="" style="endArrow=classic;html=1;rounded=0;exitX=1;exitY=0.5;exitDx=0;exitDy=0;entryX=0;entryY=0.5;entryDx=0;entryDy=0;" parent="1" source="5U4W94Xlayc8lvqxWWvb-1" target="5U4W94Xlayc8lvqxWWvb-4" edge="1">
          <mxGeometry width="50" height="50" relative="1" as="geometry">
            <mxPoint x="370" y="510" as="sourcePoint" />
            <mxPoint x="420" y="460" as="targetPoint" />
          </mxGeometry>
        </mxCell>
        <mxCell id="5U4W94Xlayc8lvqxWWvb-19" value="" style="endArrow=classic;html=1;rounded=0;exitX=1;exitY=0.5;exitDx=0;exitDy=0;exitPerimeter=0;entryX=0;entryY=0.5;entryDx=0;entryDy=0;" parent="1" source="5U4W94Xlayc8lvqxWWvb-5" target="5U4W94Xlayc8lvqxWWvb-6" edge="1">
          <mxGeometry width="50" height="50" relative="1" as="geometry">
            <mxPoint x="370" y="510" as="sourcePoint" />
            <mxPoint x="420" y="460" as="targetPoint" />
          </mxGeometry>
        </mxCell>
        <mxCell id="5U4W94Xlayc8lvqxWWvb-20" value="Credentials&lt;br&gt;Not valid" style="text;html=1;strokeColor=none;fillColor=none;align=center;verticalAlign=middle;whiteSpace=wrap;rounded=0;" parent="1" vertex="1">
          <mxGeometry x="540" y="330" width="60" height="30" as="geometry" />
        </mxCell>
        <mxCell id="5U4W94Xlayc8lvqxWWvb-21" value="Success" style="text;html=1;strokeColor=none;fillColor=none;align=center;verticalAlign=middle;whiteSpace=wrap;rounded=0;" parent="1" vertex="1">
          <mxGeometry x="435" y="420" width="60" height="30" as="geometry" />
        </mxCell>
        <mxCell id="5U4W94Xlayc8lvqxWWvb-23" value="&lt;b&gt;Response code: 500&lt;/b&gt;&lt;br&gt;Internal server error" style="rounded=1;whiteSpace=wrap;html=1;absoluteArcSize=1;arcSize=14;strokeWidth=2;" parent="1" vertex="1">
          <mxGeometry x="19" y="330" width="121" height="70" as="geometry" />
        </mxCell>
        <mxCell id="5U4W94Xlayc8lvqxWWvb-24" value="" style="endArrow=classic;html=1;rounded=0;exitX=0;exitY=0.5;exitDx=0;exitDy=0;entryX=1;entryY=0.5;entryDx=0;entryDy=0;" parent="1" source="5U4W94Xlayc8lvqxWWvb-1" target="5U4W94Xlayc8lvqxWWvb-23" edge="1">
          <mxGeometry width="50" height="50" relative="1" as="geometry">
            <mxPoint x="560" y="600" as="sourcePoint" />
            <mxPoint x="610" y="550" as="targetPoint" />
          </mxGeometry>
        </mxCell>
        <mxCell id="5U4W94Xlayc8lvqxWWvb-25" value="" style="endArrow=classic;html=1;rounded=0;entryX=0;entryY=0.5;entryDx=0;entryDy=0;entryPerimeter=0;edgeStyle=elbowEdgeStyle;exitX=0.146;exitY=1.015;exitDx=0;exitDy=0;exitPerimeter=0;" parent="1" source="5U4W94Xlayc8lvqxWWvb-23" target="5U4W94Xlayc8lvqxWWvb-27" edge="1">
          <mxGeometry width="50" height="50" relative="1" as="geometry">
            <mxPoint x="35" y="400" as="sourcePoint" />
            <mxPoint x="35" y="770" as="targetPoint" />
            <Array as="points">
              <mxPoint x="35" y="650" />
            </Array>
          </mxGeometry>
        </mxCell>
        <mxCell id="5U4W94Xlayc8lvqxWWvb-27" value="&lt;b&gt;Stop&lt;/b&gt;" style="strokeWidth=2;html=1;shape=mxgraph.flowchart.terminator;whiteSpace=wrap;" parent="1" vertex="1">
          <mxGeometry x="387" y="858" width="100" height="60" as="geometry" />
        </mxCell>
        <mxCell id="5U4W94Xlayc8lvqxWWvb-28" value="" style="endArrow=classic;html=1;rounded=0;exitX=0.5;exitY=1;exitDx=0;exitDy=0;exitPerimeter=0;entryX=0.5;entryY=0;entryDx=0;entryDy=0;entryPerimeter=0;" parent="1" source="5U4W94Xlayc8lvqxWWvb-29" target="5U4W94Xlayc8lvqxWWvb-27" edge="1">
          <mxGeometry width="50" height="50" relative="1" as="geometry">
            <mxPoint x="560" y="590" as="sourcePoint" />
            <mxPoint x="610" y="540" as="targetPoint" />
          </mxGeometry>
        </mxCell>
        <mxCell id="5U4W94Xlayc8lvqxWWvb-30" value="" style="endArrow=classic;html=1;rounded=0;exitX=0.5;exitY=1;exitDx=0;exitDy=0;exitPerimeter=0;entryX=0.5;entryY=0;entryDx=0;entryDy=0;entryPerimeter=0;" parent="1" source="5U4W94Xlayc8lvqxWWvb-5" target="5U4W94Xlayc8lvqxWWvb-29" edge="1">
          <mxGeometry width="50" height="50" relative="1" as="geometry">
            <mxPoint x="437" y="719" as="sourcePoint" />
            <mxPoint x="437" y="858" as="targetPoint" />
          </mxGeometry>
        </mxCell>
        <mxCell id="5U4W94Xlayc8lvqxWWvb-29" value="&lt;b&gt;Response code: 500&lt;/b&gt;&lt;br&gt;Internal server error" style="rounded=1;whiteSpace=wrap;html=1;absoluteArcSize=1;arcSize=14;strokeWidth=2;" parent="1" vertex="1">
          <mxGeometry x="372" y="755" width="130" height="60" as="geometry" />
        </mxCell>
        <mxCell id="5U4W94Xlayc8lvqxWWvb-31" value="" style="endArrow=classic;html=1;rounded=0;exitX=0.5;exitY=1;exitDx=0;exitDy=0;entryX=1;entryY=0.5;entryDx=0;entryDy=0;entryPerimeter=0;edgeStyle=orthogonalEdgeStyle;" parent="1" source="5U4W94Xlayc8lvqxWWvb-6" target="5U4W94Xlayc8lvqxWWvb-27" edge="1">
          <mxGeometry width="50" height="50" relative="1" as="geometry">
            <mxPoint x="560" y="590" as="sourcePoint" />
            <mxPoint x="610" y="540" as="targetPoint" />
          </mxGeometry>
        </mxCell>
        <mxCell id="5U4W94Xlayc8lvqxWWvb-34" value="" style="endArrow=classic;html=1;rounded=0;exitX=0.75;exitY=1;exitDx=0;exitDy=0;entryX=1;entryY=0.5;entryDx=0;entryDy=0;entryPerimeter=0;edgeStyle=orthogonalEdgeStyle;" parent="1" source="5U4W94Xlayc8lvqxWWvb-4" target="5U4W94Xlayc8lvqxWWvb-27" edge="1">
          <mxGeometry width="50" height="50" relative="1" as="geometry">
            <mxPoint x="550" y="600" as="sourcePoint" />
            <mxPoint x="600" y="550" as="targetPoint" />
          </mxGeometry>
        </mxCell>
        <mxCell id="5U4W94Xlayc8lvqxWWvb-37" value="Success" style="text;html=1;strokeColor=none;fillColor=none;align=center;verticalAlign=middle;whiteSpace=wrap;rounded=0;" parent="1" vertex="1">
          <mxGeometry x="300" y="640" width="60" height="30" as="geometry" />
        </mxCell>
        <mxCell id="5U4W94Xlayc8lvqxWWvb-38" value="Invalid Asset ID" style="text;html=1;strokeColor=none;fillColor=none;align=center;verticalAlign=middle;whiteSpace=wrap;rounded=0;" parent="1" vertex="1">
          <mxGeometry x="490" y="640" width="60" height="30" as="geometry" />
        </mxCell>
        <mxCell id="5U4W94Xlayc8lvqxWWvb-39" value="Internal error" style="text;html=1;strokeColor=none;fillColor=none;align=center;verticalAlign=middle;whiteSpace=wrap;rounded=0;" parent="1" vertex="1">
          <mxGeometry x="230" y="330" width="60" height="30" as="geometry" />
        </mxCell>
        <mxCell id="5U4W94Xlayc8lvqxWWvb-41" value="Internal errot" style="text;html=1;strokeColor=none;fillColor=none;align=center;verticalAlign=middle;whiteSpace=wrap;rounded=0;" parent="1" vertex="1">
          <mxGeometry x="365" y="719" width="60" height="30" as="geometry" />
        </mxCell>
        <mxCell id="5U4W94Xlayc8lvqxWWvb-42" value="GET" style="text;html=1;strokeColor=none;fillColor=none;align=center;verticalAlign=middle;whiteSpace=wrap;rounded=0;" parent="1" vertex="1">
          <mxGeometry x="438.25" y="270" width="60" height="30" as="geometry" />
        </mxCell>
        <mxCell id="5U4W94Xlayc8lvqxWWvb-43" value="Request with&lt;br&gt;JWT Access Token &amp;amp; Asset ID" style="text;html=1;strokeColor=none;fillColor=none;align=center;verticalAlign=middle;whiteSpace=wrap;rounded=0;" parent="1" vertex="1">
          <mxGeometry x="340" y="270" width="98.25" height="30" as="geometry" />
        </mxCell>
        <mxCell id="5U4W94Xlayc8lvqxWWvb-44" value="" style="endArrow=classic;html=1;rounded=0;entryX=0;entryY=0.5;entryDx=0;entryDy=0;entryPerimeter=0;exitX=0.5;exitY=1;exitDx=0;exitDy=0;edgeStyle=orthogonalEdgeStyle;" parent="1" source="5U4W94Xlayc8lvqxWWvb-8" target="5U4W94Xlayc8lvqxWWvb-27" edge="1">
          <mxGeometry width="50" height="50" relative="1" as="geometry">
            <mxPoint x="170" y="860" as="sourcePoint" />
            <mxPoint x="330" y="640" as="targetPoint" />
          </mxGeometry>
        </mxCell>
        <mxCell id="5U4W94Xlayc8lvqxWWvb-45" value="" style="endArrow=classic;html=1;rounded=0;exitX=0.5;exitY=1;exitDx=0;exitDy=0;entryX=0.5;entryY=0;entryDx=0;entryDy=0;" parent="1" source="5U4W94Xlayc8lvqxWWvb-7" target="5U4W94Xlayc8lvqxWWvb-8" edge="1">
          <mxGeometry width="50" height="50" relative="1" as="geometry">
            <mxPoint x="290" y="690" as="sourcePoint" />
            <mxPoint x="340" y="640" as="targetPoint" />
          </mxGeometry>
        </mxCell>
      </root>
    </mxGraphModel>
  </diagram>
</mxfile>
